<?xml version="1.0" standalone="no"?>
<!DOCTYPE svg PUBLIC "-//W3C//DTD SVG 20010904//EN"
 "http://www.w3.org/TR/2001/REC-SVG-20010904/DTD/svg10.dtd">
<svg version="1.0" xmlns="http://www.w3.org/2000/svg"
 width="1200.000000pt" height="1200.000000pt" viewBox="0 0 1200.000000 1200.000000"
 preserveAspectRatio="xMidYMid meet">
<metadata>
Created by potrace 1.11, written by Peter Selinger 2001-2013
</metadata>
<g transform="translate(0.000000,1200.000000) scale(0.100000,-0.100000)"
fill="#000000" stroke="none">
<path d="M0 6000 l0 -6000 6000 0 6000 0 0 6000 0 6000 -6000 0 -6000 0 0
-6000z m9000 2175 l0 -75 -3000 0 -3000 0 0 75 0 75 3000 0 3000 0 0 -75z
m-5160 -565 l0 -50 -110 0 c-134 0 -174 -13 -195 -64 -19 -46 -21 -561 -2
-616 19 -55 60 -70 195 -70 l112 0 0 -50 0 -50 -118 0 c-142 0 -208 16 -255
64 -53 53 -57 82 -57 411 0 329 4 358 57 411 47 48 107 62 251 63 l122 1 0
-50z m1610 -425 l0 -475 -50 0 c-38 0 -50 4 -50 15 0 18 -12 19 -29 3 -20 -21
-228 -17 -267 4 -44 24 -82 72 -91 116 -10 48 -10 356 0 405 4 20 22 53 38 72
42 47 106 65 236 65 l103 0 0 135 0 135 55 0 55 0 0 -475z m620 415 l0 -60
-65 0 -65 0 0 60 0 60 65 0 65 0 0 -60z m1380 -86 l0 -146 23 7 c12 4 56 10
98 12 140 9 223 -33 249 -125 5 -21 10 -148 10 -294 l0 -258 -55 0 -54 0 -3
266 -3 266 -28 24 c-24 20 -39 24 -97 24 -80 0 -113 -12 -129 -47 -7 -15 -11
-113 -11 -278 l0 -255 -55 0 -55 0 0 475 0 475 55 0 55 0 0 -146z m-2913 -139
c61 -18 109 -67 119 -122 10 -50 10 -357 0 -406 -19 -97 -112 -143 -271 -135
-116 6 -165 31 -203 103 -18 34 -30 302 -18 399 11 85 64 149 137 166 57 13
183 11 236 -5z m1523 -275 l0 -290 100 0 100 0 0 -50 0 -50 -155 0 -155 0 0
290 0 290 -100 0 -100 0 0 50 0 50 155 0 155 0 0 -290z m593 273 c-4 -16 -3
-16 40 2 47 19 159 19 224 0 59 -17 97 -56 113 -113 5 -21 10 -148 10 -294 l0
-258 -55 0 -54 0 -3 266 -3 266 -28 24 c-24 20 -39 24 -97 24 -80 0 -113 -12
-129 -47 -7 -15 -11 -113 -11 -278 l0 -255 -55 0 -55 0 0 341 0 340 53 -3 c35
-2 51 -7 50 -15z m1844 2 c61 -18 109 -67 119 -122 10 -50 10 -357 0 -406 -19
-97 -112 -143 -271 -135 -116 6 -165 31 -203 103 -18 34 -30 302 -18 399 11
85 64 149 137 166 57 13 183 11 236 -5z m-1791 -1499 l24 -27 0 -429 0 -429
85 -172 c83 -168 85 -172 85 -244 0 -64 -3 -78 -24 -102 l-24 -28 -852 0 -852
0 -24 28 c-21 24 -24 38 -24 102 0 72 2 76 85 244 l85 172 0 433 0 433 23 20
c12 12 31 23 41 25 11 1 319 3 684 2 l665 0 23 -28z m1394 -2051 l0 -75 -2100
0 -2100 0 0 75 0 75 2100 0 2100 0 0 -75z"/>
<path d="M5114 7276 c-17 -8 -34 -21 -38 -31 -3 -9 -6 -100 -6 -201 0 -169 2
-186 19 -203 25 -25 75 -35 153 -29 98 7 98 8 98 264 l0 214 -97 0 c-60 -1
-110 -6 -129 -14z"/>
<path d="M4325 7278 c-43 -23 -45 -34 -45 -224 0 -100 3 -190 6 -199 16 -40
141 -61 210 -35 51 20 53 31 53 230 0 199 -2 210 -53 230 -36 13 -145 12 -171
-2z"/>
<path d="M8285 7278 c-43 -23 -45 -34 -45 -224 0 -100 3 -190 6 -199 16 -40
141 -61 210 -35 51 20 53 31 53 230 0 199 -2 210 -53 230 -36 13 -145 12 -171
-2z"/>
<path d="M5331 5836 c-8 -9 -10 -129 -9 -422 l3 -409 510 -1 c281 -1 520 -2
533 -3 18 -1 23 -6 20 -23 l-3 -23 -535 -3 -535 -2 -68 -135 c-37 -74 -67
-137 -67 -140 0 -3 369 -5 820 -5 451 0 820 2 820 5 0 3 -32 69 -71 148 l-72
142 0 430 c0 265 -4 435 -10 443 -15 19 -1320 18 -1336 -2z m1271 -63 c17 -15
18 -39 18 -345 0 -315 -1 -329 -20 -348 -20 -20 -33 -20 -600 -20 -567 0 -580
0 -600 20 -19 19 -20 33 -20 343 0 276 2 326 16 345 l15 22 586 0 c532 0 588
-2 605 -17z m10 -781 c5 -5 6 -16 2 -25 -9 -25 -152 -25 -161 -1 -4 10 0 22 9
28 18 13 136 12 150 -2z m-1152 -127 c0 -23 -3 -25 -49 -25 -31 0 -51 5 -54
13 -9 27 6 37 54 37 46 0 49 -2 49 -25z m165 0 c0 -17 -8 -20 -46 -23 -36 -2
-48 1 -53 13 -10 28 3 36 52 33 39 -3 47 -6 47 -23z m170 0 c0 -16 -8 -21 -44
-23 -48 -4 -67 8 -57 33 4 12 17 15 53 13 40 -3 48 -6 48 -23z m170 0 c0 -16
-8 -21 -44 -23 -48 -4 -67 8 -57 33 4 12 17 15 53 13 40 -3 48 -6 48 -23z
m170 0 c0 -16 -8 -21 -44 -23 -48 -4 -67 8 -57 33 4 12 17 15 53 13 40 -3 48
-6 48 -23z m170 0 c0 -16 -8 -21 -44 -23 -48 -4 -67 8 -57 33 4 12 17 15 53
13 40 -3 48 -6 48 -23z m170 0 c0 -16 -8 -21 -44 -23 -48 -4 -67 8 -57 33 4
12 17 15 53 13 40 -3 48 -6 48 -23z m168 13 c9 -28 -6 -38 -54 -38 -46 0 -49
2 -49 25 0 23 3 25 49 25 31 0 51 -5 54 -12z m-1098 -123 c0 -17 -8 -20 -52
-23 -46 -3 -53 -1 -53 16 0 28 10 33 60 30 37 -3 45 -6 45 -23z m169 9 c10
-26 -3 -34 -55 -34 -41 0 -49 3 -49 18 0 27 9 32 56 32 29 0 44 -5 48 -16z
m504 -11 c3 -18 -2 -23 -20 -24 -74 -3 -386 -4 -400 0 -18 3 -24 31 -11 45 4
3 102 5 217 4 210 -3 211 -3 214 -25z m170 0 c3 -21 0 -23 -47 -23 -53 0 -65
8 -55 35 5 12 17 15 53 13 39 -3 46 -6 49 -25z m167 2 c0 -16 -8 -21 -44 -23
-48 -4 -67 8 -57 33 4 12 17 15 53 13 40 -3 48 -6 48 -23z"/>
<path d="M5440 5430 l0 -310 560 0 560 0 0 310 0 310 -560 0 -560 0 0 -310z
m638 193 c3 -21 -30 -53 -56 -53 -24 0 -25 31 -1 56 27 29 53 28 57 -3z m11
-111 c43 -32 46 -46 21 -80 -29 -39 -29 -87 0 -117 27 -28 23 -52 -11 -77 -54
-41 -143 -41 -198 -1 -14 11 -37 40 -50 66 -19 38 -22 56 -16 93 7 51 51 109
100 131 39 17 122 10 154 -15z"/>
<path d="M5952 5470 c-41 -19 -62 -53 -62 -103 0 -73 89 -130 151 -97 18 10
18 13 4 40 -19 37 -19 87 0 124 8 15 13 32 10 36 -10 16 -67 16 -103 0z"/>
<path d="M5162 4558 l3 -53 835 0 835 0 3 53 3 52 -841 0 -841 0 3 -52z"/>
</g>
</svg>
